<?xml version="1.0" encoding="UTF-8" standalone="no"?>
<!-- Created with Inkscape (http://www.inkscape.org/) -->

<svg
   version="1.1"
   id="svg212"
   width="288"
   height="288"
   viewBox="0 0 288 288"
   sodipodi:docname="bears.svg"
   inkscape:version="1.2.2 (b0a8486541, 2022-12-01)"
   xmlns:inkscape="http://www.inkscape.org/namespaces/inkscape"
   xmlns:sodipodi="http://sodipodi.sourceforge.net/DTD/sodipodi-0.dtd"
   xmlns:xlink="http://www.w3.org/1999/xlink"
   xmlns="http://www.w3.org/2000/svg"
   xmlns:svg="http://www.w3.org/2000/svg">
  <sodipodi:namedview
     id="namedview2686"
     pagecolor="#ffffff"
     bordercolor="#666666"
     borderopacity="1.0"
     inkscape:showpageshadow="2"
     inkscape:pageopacity="0.0"
     inkscape:pagecheckerboard="0"
     inkscape:deskcolor="#d1d1d1"
     showgrid="false"
     inkscape:zoom="2.7743056"
     inkscape:cx="124.17522"
     inkscape:cy="144.18023"
     inkscape:window-width="1920"
     inkscape:window-height="994"
     inkscape:window-x="0"
     inkscape:window-y="25"
     inkscape:window-maximized="1"
     inkscape:current-layer="g218" />
  <defs
     id="defs216">
    <linearGradient
       inkscape:collect="always"
       id="linearGradient3195">
      <stop
         style="stop-color:#ffffff;stop-opacity:1;"
         offset="0"
         id="stop3191" />
      <stop
         style="stop-color:#ffffff;stop-opacity:0;"
         offset="1"
         id="stop3193" />
    </linearGradient>
    <linearGradient
       inkscape:collect="always"
       xlink:href="#linearGradient3195"
       id="linearGradient3197"
       x1="3.5188675"
       y1="150.42619"
       x2="276.0043"
       y2="150.42619"
       gradientUnits="userSpaceOnUse" />
  </defs>
  <g
     id="g218">
    <path
       style="fill:url(#linearGradient3197);stroke-width:1.06667;fill-opacity:1;stroke:#000000;stroke-opacity:1"
       d="m 97.024026,229.48202 c 1.43949,-5.01921 2.971796,-7.21786 8.063724,-11.57031 l 4.84647,-4.14263 -1.64237,-11.15121 C 103.96851,173.2637 97.179261,154.21366 89.17102,148.96646 87.799181,148.06759 81.296277,146.12012 74.720123,144.63873 68.143969,143.15734 60.041696,140.69345 56.715073,139.16341 52.354667,137.1579 46.350202,135.80809 35.2,134.32678 13.8824,131.49474 14.467405,131.68515 9.7907586,126.05621 4.4591348,119.63892 2.9308311,116.66179 3.709205,114.20935 c 0.5992469,-1.88806 6.323174,-4.82364 14.481442,-7.42699 2.886837,-0.92121 4.113687,-2.10297 5.145496,-4.95638 1.535958,-4.247623 3.925571,-6.072066 12.537391,-9.572172 5.887672,-2.392929 6.104017,-2.630186 8.814475,-9.66651 1.528262,-3.967353 3.345305,-7.401387 4.037875,-7.631184 0.692569,-0.229798 3.150745,1.291068 5.462614,3.379703 l 4.203397,3.797516 12.137386,-0.0081 c 17.455806,-0.01158 24.233552,-1.382521 37.357149,-7.556218 9.09962,-4.280704 12.86024,-5.467157 18.94607,-5.977373 7.47195,-0.62642 7.75474,-0.555204 17.74155,4.467817 l 10.14856,5.104383 8.77204,-0.625051 c 4.8246,-0.343729 14.53202,-1.424461 21.57202,-2.401578 14.94233,-2.07392 35.73932,-1.568379 45.78681,1.113002 17.16136,4.579871 30.18361,17.243921 39.35421,38.271735 3.06821,7.03528 3.3158,8.4995 3.27086,19.34473 -0.0396,9.54836 -0.70502,14.41489 -3.57359,26.13333 -1.98885,8.12469 -3.54967,17.32286 -3.58164,21.10711 -0.0505,5.97144 0.49178,7.75796 4.94335,16.28736 5.71227,10.945 5.88103,12.65668 2.51791,25.53886 L 271.41757,232 l -13.04212,0.2995 c -7.17317,0.16472 -13.04212,0.031 -13.04212,-0.29709 0,-0.32812 1.42982,-3.42902 3.17737,-6.89091 l 3.17736,-6.29433 -3.64069,-1.20153 c -2.00239,-0.66086 -5.70454,-3.03304 -8.22701,-5.27153 l -4.58629,-4.06999 -2.15037,7.59628 -2.15037,7.59627 -16,0.32625 c -19.53404,0.39831 -27.2,-0.35189 -27.2,-2.66183 0,-1.82594 7.08158,-9.29845 9.6,-10.12995 1.16461,-0.38451 -0.19891,-2.45552 -5.01081,-7.6107 -6.54375,-7.01056 -8.83709,-11.69851 -8.8499,-18.09058 -0.004,-1.90257 -0.67555,-3.16303 -1.87262,-3.51381 -1.02667,-0.30086 -4.98667,-2.08578 -8.8,-3.96653 -3.81333,-1.88074 -7.33088,-3.41952 -7.81678,-3.41952 -0.99825,0 -5.25476,9.60985 -11.57531,26.13333 -3.12558,8.17106 -4.59162,14.01259 -5.42092,21.6 l -1.13672,10.4 H 121.49959 96.148918 Z M 37.29369,105.67408 c 1.566983,-2.92794 -1.373164,-5.868086 -4.301099,-4.3011 -2.347363,1.25627 -2.647381,3.21223 -0.779258,5.08035 1.868124,1.86813 3.824086,1.56811 5.080357,-0.77925 z"
       id="path330"
       inkscape:label="path330" />
  </g>
</svg>
