<?xml version="1.0" encoding="UTF-8" standalone="no"?>
<!-- Created with Inkscape (http://www.inkscape.org/) -->

<svg
   version="1.1"
   id="svg444"
   width="288"
   height="288"
   viewBox="0 0 288 288"
   sodipodi:docname="beavers.svg"
   inkscape:version="1.2.2 (b0a8486541, 2022-12-01)"
   xmlns:inkscape="http://www.inkscape.org/namespaces/inkscape"
   xmlns:sodipodi="http://sodipodi.sourceforge.net/DTD/sodipodi-0.dtd"
   xmlns="http://www.w3.org/2000/svg"
   xmlns:svg="http://www.w3.org/2000/svg">
  <sodipodi:namedview
     id="namedview3821"
     pagecolor="#ffffff"
     bordercolor="#666666"
     borderopacity="1.0"
     inkscape:showpageshadow="2"
     inkscape:pageopacity="0.0"
     inkscape:pagecheckerboard="0"
     inkscape:deskcolor="#d1d1d1"
     showgrid="false"
     inkscape:zoom="2.7743056"
     inkscape:cx="124.17522"
     inkscape:cy="144.18023"
     inkscape:window-width="1920"
     inkscape:window-height="994"
     inkscape:window-x="0"
     inkscape:window-y="25"
     inkscape:window-maximized="1"
     inkscape:current-layer="g450" />
  <defs
     id="defs448" />
  <g
     id="g450">
    <path
       style="fill:#ffffff;stroke-width:1.06667;stroke:#000000;stroke-opacity:1"
       d="M 130.66667,213.21441 C 96.424343,212.18681 74.632288,208.30236 54.558489,199.64807 29.014501,188.63546 15.870173,172.49881 9.52489,144.36253 6.1956204,129.59986 6.7540119,127.41774 16.380878,117.57018 c 6.447395,-6.5952 8.339769,-7.92391 11.908959,-8.36171 7.841004,-0.96179 9.901536,1.36753 20.789193,23.50113 10.492513,21.33029 18.76353,34.95084 22.408239,36.90143 1.262494,0.67566 2.428901,1.06959 2.592014,0.87539 0.163114,-0.1942 1.881528,-5.15309 3.818697,-11.01975 4.893923,-14.82112 7.788161,-21.04444 14.464974,-31.1032 10.109456,-15.23012 25.648186,-27.64666 42.570376,-34.01675 19.86788,-7.47895 39.99583,-8.928076 65.6,-4.722914 11.69486,1.920733 16.10324,2.200547 23.46667,1.489507 17.4469,-1.684736 24.56464,-1.278125 29.53668,1.687324 6.7247,4.010768 22.62307,18.056933 24.65897,21.786113 1.4318,2.62264 1.79201,6.24787 1.79749,18.09051 0.007,16.24645 -0.54392,17.68611 -6.22804,16.25949 -2.63369,-0.66102 -2.83177,-1.11966 -2.83177,-6.55707 0,-6.00655 -0.84085,-7.08894 -3.25102,-4.18486 -2.65748,3.20205 -10.15576,6.65273 -18.27737,8.41116 -11.76128,2.54647 -14.88178,5.61523 -19.44514,19.12271 -3.02226,8.94584 -2.39213,9.43097 11.13765,8.57485 l 11.58753,-0.73323 0.72913,2.90512 c 1.07918,4.29977 -0.9114,5.46115 -12.6837,7.40014 -14.01189,2.30788 -15.01263,2.23094 -19.23812,-1.47909 -5.03611,-4.42177 -10.81671,-6.67538 -14.93612,-5.82297 -6.02065,1.24583 -40.15617,20.5851 -40.15617,22.75024 0,0.52264 3.61609,1.48808 8.03575,2.14542 9.74475,1.44935 13.54061,3.60399 13.08642,7.42823 -0.2397,2.01823 -1.14136,2.90643 -3.52217,3.46962 -5.21831,1.23441 -28.24532,1.60028 -53.33333,0.84739 z"
       id="path571" />
  </g>
</svg>
