<?xml version="1.0" encoding="UTF-8" standalone="no"?>
<!-- Created with Inkscape (http://www.inkscape.org/) -->

<svg
   version="1.1"
   id="svg726"
   width="288"
   height="288"
   viewBox="0 0 288 288"
   sodipodi:docname="boars.svg"
   inkscape:version="1.2.2 (b0a8486541, 2022-12-01)"
   xmlns:inkscape="http://www.inkscape.org/namespaces/inkscape"
   xmlns:sodipodi="http://sodipodi.sourceforge.net/DTD/sodipodi-0.dtd"
   xmlns="http://www.w3.org/2000/svg"
   xmlns:svg="http://www.w3.org/2000/svg">
  <sodipodi:namedview
     id="namedview420"
     pagecolor="#ffffff"
     bordercolor="#666666"
     borderopacity="1.0"
     inkscape:showpageshadow="2"
     inkscape:pageopacity="0.0"
     inkscape:pagecheckerboard="0"
     inkscape:deskcolor="#d1d1d1"
     showgrid="false"
     inkscape:zoom="2.7743056"
     inkscape:cx="124.17522"
     inkscape:cy="144.18023"
     inkscape:window-width="1920"
     inkscape:window-height="994"
     inkscape:window-x="0"
     inkscape:window-y="25"
     inkscape:window-maximized="1"
     inkscape:current-layer="g732" />
  <defs
     id="defs730" />
  <g
     id="g732">
    <path
       style="fill:#ffffff;stroke-width:1.06667;fill-opacity:1;stroke:#000000;stroke-opacity:1"
       d="m 19.2,230.4 c -2.061131,-2.06113 -2.133081,-3.55033 -2.12586,-44 0.0068,-38.39606 0.187265,-42.61826 2.176343,-50.93333 2.47291,-10.33767 8.689801,-23.69736 14.591538,-31.35628 2.213556,-2.87262 4.504646,-5.877921 5.091312,-6.678454 1.613673,-2.201931 -2.500485,-8.863503 -6.916691,-11.199385 -2.559597,-1.353858 -5.9785,-1.965884 -10.981819,-1.965884 -6.291368,0 -7.616045,-0.35092 -9.883308,-2.618182 -1.4399998,-1.44 -2.6181817,-3.861818 -2.6181817,-5.381818 0,-1.52 1.1781819,-3.941819 2.6181817,-5.381819 2.302745,-2.302745 3.55573,-2.617465 10.4,-2.612233 4.28,0.0033 9.478388,0.477275 11.551973,1.053341 5.707791,1.58569 13.38158,6.873704 16.777142,11.561142 2.802685,3.868994 3.193885,4.07032 5.110523,2.630071 4.280924,-3.216883 18.745649,-9.95483 26.272849,-12.238398 7.432199,-2.254746 9.959832,-2.385384 53.236418,-2.751475 51.48443,-0.435522 53.83394,-0.185584 68.11927,7.246462 7.54093,3.923223 18.84602,13.602257 21.5676,18.465454 C 225.0325,95.74952 227.37222,96 240.63482,96 c 14.99439,0 15.54136,0.07921 18.08033,2.618181 3.97535,3.975349 3.296,7.122269 -3.82322,17.710069 -3.54278,5.26886 -6.67813,10.19662 -6.96745,10.95059 -0.37879,0.9871 13.56498,22.55377 18.29499,28.29663 0.17008,0.2065 1.40708,-0.3935 2.74889,-1.33334 3.47622,-2.43483 6.98818,-2.11589 10.01345,0.90939 4.99105,4.99104 3.93528,7.07479 -11.46426,22.6267 L 253.4351,192 h -25.84731 -25.84731 l -0.33691,18.22987 c -0.42895,23.21033 0.32014,22.30346 -18.42309,22.30346 -11.58252,0 -13.26144,-0.23381 -14.93174,-2.07947 -1.03504,-1.14372 -6.74943,-10.14372 -12.69865,-20 l -10.81676,-17.92053 -33.06666,-0.25893 c -18.18667,-0.14241 -33.570818,0.0976 -34.187,0.53333 -0.616181,0.43575 -6.79565,8.95227 -13.732153,18.9256 -6.936505,9.97334 -13.364098,18.73334 -14.283543,19.46667 -1.133309,0.9039 -5.900304,1.33333 -14.801179,1.33333 -11.70724,0 -13.360551,-0.23109 -15.262795,-2.13333 z"
       id="path853" />
  </g>
</svg>
