<?xml version="1.0" encoding="UTF-8" standalone="no"?>
<!-- Created with Inkscape (http://www.inkscape.org/) -->

<svg
   version="1.1"
   id="svg7299"
   width="288"
   height="288"
   viewBox="0 0 288 288"
   sodipodi:docname="fishes.svg"
   inkscape:version="1.2.2 (b0a8486541, 2022-12-01)"
   xmlns:inkscape="http://www.inkscape.org/namespaces/inkscape"
   xmlns:sodipodi="http://sodipodi.sourceforge.net/DTD/sodipodi-0.dtd"
   xmlns="http://www.w3.org/2000/svg"
   xmlns:svg="http://www.w3.org/2000/svg">
  <defs
     id="defs7303" />
  <sodipodi:namedview
     id="namedview7301"
     pagecolor="#ffffff"
     bordercolor="#666666"
     borderopacity="1.0"
     inkscape:showpageshadow="2"
     inkscape:pageopacity="0.0"
     inkscape:pagecheckerboard="0"
     inkscape:deskcolor="#d1d1d1"
     showgrid="false"
     inkscape:zoom="2.7743056"
     inkscape:cx="124.17522"
     inkscape:cy="144.18023"
     inkscape:window-width="1920"
     inkscape:window-height="994"
     inkscape:window-x="0"
     inkscape:window-y="25"
     inkscape:window-maximized="1"
     inkscape:current-layer="g7305" />
  <g
     inkscape:groupmode="layer"
     inkscape:label="Image"
     id="g7305">
    <path
       style="fill:#ffffff;stroke-width:1.06667;stroke:#000000;stroke-opacity:1"
       d="m 136.13473,279.9059 c -12.84849,-3.1097 -21.16528,-10.31496 -22.65845,-19.63017 l -0.5999,-3.7424 -9.23819,-0.0978 C 92.230054,256.31479 83.096649,254.05019 72,248.59092 52.225571,238.86241 38.517982,221.71549 31.407964,197.81404 c -5.198707,-17.47629 -4.622108,-43.97983 1.262506,-58.03143 1.517188,-3.62282 1.48016,-3.849 -0.876515,-5.35423 -1.353342,-0.86439 -5.537633,-4.51753 -9.298424,-8.11809 -5.000331,-4.78728 -6.648732,-7.03918 -6.134214,-8.38 0.57116,-1.48841 1.356251,-1.66695 4.171136,-0.94857 1.907151,0.48672 7.759968,0.85856 13.006262,0.82631 l 9.538715,-0.0587 3.794618,-4.68511 C 60.405402,96.355002 69.783182,89.10215 83.427643,84.791868 c 11.6293,-3.673695 21.299257,-4.440507 28.735627,-2.278693 7.26248,2.111258 10.91993,4.89469 13.99982,10.654298 3.34433,6.254116 3.2551,20.959477 -0.18052,29.750417 -3.6293,9.28648 -10.34047,18.55395 -17.04737,23.54072 -3.30103,2.45441 -6.38789,4.9453 -6.85969,5.53531 -0.47181,0.59002 -0.66714,5.87275 -0.43408,11.73941 0.31887,8.02674 1.01872,12.03648 2.82777,16.20141 2.33253,5.37013 2.27302,7.79859 -0.19112,7.79859 -2.37408,0 -14.862214,-8.94849 -18.917454,-13.55548 -4.736129,-5.38054 -4.886589,-5.28644 -7.913803,4.94908 -3.365843,11.38049 -1.823745,22.25037 5.231142,36.87307 5.274232,10.93193 12.885651,19.24687 23.359385,25.5185 l 6.30402,3.77481 1.81822,-5.37087 c 2.05497,-6.07022 6.21049,-10.95236 11.70708,-13.75415 3.72316,-1.89783 18.23937,-5.6178 18.99057,-4.8666 0.75683,0.75682 -2.15638,12.86336 -4.31804,17.94471 -1.19634,2.81219 -4.05339,6.72077 -6.349,8.68572 l -4.17384,3.57265 3.25437,2.31732 c 4.42402,3.15019 8.17596,9.88577 10.13371,18.19234 2.56692,10.89126 3.03323,10.38507 -7.26971,7.89147 z m 44.39612,-72.77214 c -6.65162,-2.38357 -9.3038,-4.5978 -12.37769,-10.33376 -3.25857,-6.08059 -3.12611,-20.90941 0.26427,-29.58458 3.6293,-9.28648 10.34047,-18.55395 17.04737,-23.54072 3.30102,-2.45441 6.38789,-4.9453 6.85969,-5.53531 0.47181,-0.58999 0.66714,-5.87272 0.43408,-11.73939 -0.31887,-8.02674 -1.01872,-12.03648 -2.82778,-16.20141 -2.33252,-5.37013 -2.27301,-7.79859 0.19113,-7.79859 2.37408,0 14.86222,8.94849 18.91745,13.55549 4.73613,5.38053 4.88659,5.28643 7.9138,-4.94909 3.36585,-11.380487 1.82375,-22.250369 -5.23113,-36.873067 C 206.4478,63.201406 198.83638,54.886465 188.36265,48.614839 l -6.30402,-3.774818 -1.81822,5.370872 c -2.05497,6.070218 -6.21049,10.952361 -11.70708,13.754153 -3.72316,1.89782 -18.23937,5.617803 -18.99057,4.866603 -0.75683,-0.756828 2.15638,-12.863357 4.31804,-17.944718 1.19634,-2.812188 4.03757,-6.707214 6.31383,-8.655614 l 4.13867,-3.542546 -3.76649,-2.872846 c -2.07158,-1.580066 -4.73818,-4.777494 -5.92579,-7.105396 -2.27523,-4.459828 -5.91986,-18.8339139 -5.00692,-19.7468547 1.03152,-1.0315128 15.02963,2.8417357 19.95144,5.5205217 5.58516,3.039826 10.43296,9.60136 11.35818,15.373404 l 0.5999,3.7424 9.23818,0.09778 c 11.40814,0.120751 20.54155,2.38536 31.6382,7.844626 19.77443,9.728511 33.48202,26.87544 40.59203,50.776892 5.19871,17.476282 4.62211,43.979822 -1.2625,58.031422 -1.51719,3.62282 -1.48016,3.849 0.87652,5.35423 1.35334,0.86439 5.53763,4.51753 9.29842,8.11809 5.00033,4.78728 6.64874,7.03918 6.13422,8.38 -0.57117,1.48841 -1.35626,1.66695 -4.17114,0.94857 -1.90716,-0.48672 -7.75998,-0.85856 -13.00627,-0.82631 l -9.53871,0.0587 -3.79462,4.68511 c -8.05919,9.95045 -15.77865,17.54936 -21.84431,21.5032 -13.08003,8.52604 -34.11922,12.51532 -45.15279,8.5615 z"
       id="path7426" />
  </g>
</svg>
