<?xml version="1.0" encoding="UTF-8" standalone="no"?>
<!-- Created with Inkscape (http://www.inkscape.org/) -->

<svg
   version="1.1"
   id="svg13128"
   width="288"
   height="288"
   viewBox="0 0 288 288"
   sodipodi:docname="foxes.svg"
   inkscape:version="1.2.2 (b0a8486541, 2022-12-01)"
   xmlns:inkscape="http://www.inkscape.org/namespaces/inkscape"
   xmlns:sodipodi="http://sodipodi.sourceforge.net/DTD/sodipodi-0.dtd"
   xmlns="http://www.w3.org/2000/svg"
   xmlns:svg="http://www.w3.org/2000/svg">
  <defs
     id="defs13132" />
  <sodipodi:namedview
     id="namedview13130"
     pagecolor="#ffffff"
     bordercolor="#666666"
     borderopacity="1.0"
     inkscape:showpageshadow="2"
     inkscape:pageopacity="0.0"
     inkscape:pagecheckerboard="0"
     inkscape:deskcolor="#d1d1d1"
     showgrid="false"
     inkscape:zoom="2.7743056"
     inkscape:cx="124.17522"
     inkscape:cy="144.18023"
     inkscape:window-width="1920"
     inkscape:window-height="994"
     inkscape:window-x="0"
     inkscape:window-y="25"
     inkscape:window-maximized="1"
     inkscape:current-layer="g13134" />
  <g
     inkscape:groupmode="layer"
     inkscape:label="Image"
     id="g13134">
    <path
       style="fill:#ffffff;stroke-width:1.06667;stroke:#000000;stroke-opacity:1"
       d="m 104.99671,197.06667 c -3.61173,-4.27872 -8.994732,-15.43388 -8.995868,-18.64208 -5.08e-4,-1.43371 1.162037,-3.1066 2.932491,-4.21979 4.406577,-2.77072 10.710197,-8.35687 8.266667,-7.32578 -3.7097,1.56537 -14.769466,3.74232 -19.129894,3.76542 -8.74891,0.0463 -19.225161,8.13674 -24.970839,19.28402 -2.352223,4.56358 -3.603532,5.87717 -5.851712,6.14297 -3.24967,0.38422 -4.501193,-1.58754 -3.511226,-5.53188 1.417694,-5.64854 16.656596,-25.20622 19.640122,-25.20622 2.409286,0 17.268842,-9.88358 16.838729,-11.2 -0.426537,-1.30547 0.928385,-1.6765 -17.681466,4.84193 -28.780919,10.08103 -50.302759,14.25461 -63.3879172,12.29237 -4.7524528,-0.71269 -5.0283221,-0.92799 -4.3994433,-3.43365 2.7410029,-10.92102 17.2545255,-21.34431 48.0493725,-34.50796 7.037649,-3.00833 15.256078,-6.87738 18.263175,-8.59786 3.702474,-2.11835 6.975047,-3.13959 10.137608,-3.16357 2.568586,-0.0195 9.230158,-0.96136 14.803491,-2.09306 17.2808,-3.50897 40.39834,-4.87859 55.09088,-3.26391 30.39525,3.34037 33.96981,3.02107 59.57579,-5.32157 8.8,-2.86712 18.64,-5.88115 21.86666,-6.69784 5.53838,-1.40181 5.88647,-1.68713 6.22048,-5.09894 0.48364,-4.939979 2.02225,-6.522602 5.58127,-5.740909 1.62433,0.356761 3.23927,0.140368 3.62633,-0.485912 1.59542,-2.581463 4.63313,-1.063694 6.32277,3.159136 0.9437,2.358539 1.71582,5.003965 1.71582,5.878735 0,0.87476 1.87387,4.34505 4.16414,7.71174 2.29027,3.3667 4.72695,8.22879 5.41485,10.80464 0.83616,3.13107 3.0641,6.60078 6.72177,10.46823 4.39867,4.65094 5.16674,5.97734 3.91848,6.76695 -2.67604,1.69279 -6.91707,1.11285 -12.1296,-1.65867 l -5.02809,-2.67347 4.33589,5.14211 c 2.38475,2.82817 4.33589,5.52326 4.33589,5.98909 0,1.70872 -5.99609,-0.70825 -10.57505,-4.26269 -5.86989,-4.55654 -9.78756,-4.70054 -16.14945,-0.59358 -9.10496,5.87776 -14.8755,14.45073 -14.8755,22.0997 0,2.63686 6.75672,7.877 17.6,13.64958 2.93334,1.56161 8.3395,4.97121 12.01371,7.5769 3.67421,2.60571 8.61893,5.25964 10.98827,5.89764 5.05444,1.36101 6.26675,3.50627 3.62873,6.42124 -2.76083,3.05068 -7.05137,2.59412 -11.81737,-1.25753 -5.50345,-4.44762 -17.31973,-9.83231 -26.54667,-12.09735 -13.3313,-3.27258 -19.73333,-7.06842 -19.73333,-11.70011 0,-4.01512 -2.97349,-6.98474 -6.99382,-6.98474 -4.44022,0 -4.60039,1.11762 -1.55328,10.8383 2.58962,8.26121 2.69279,11.91228 0.39084,13.8311 -2.34834,1.95747 -11.20549,4.24759 -18.88068,4.88182 -6.13547,0.50699 -6.22483,0.4747 -5.4923,-1.98459 1.06663,-3.58094 3.55644,-5.16663 8.11253,-5.16663 8.3105,0 9.39775,-2.76623 4.17913,-10.63265 -1.73898,-2.62129 -3.45506,-6.10129 -3.81353,-7.73333 -0.35845,-1.63205 -0.91199,-2.96735 -1.23009,-2.96735 -4.70963,0 -24.69149,-3.96085 -29.93096,-5.93298 -9.22303,-3.47155 -11.53405,-3.37195 -13.5804,0.58524 -4.66815,9.02721 -12.92383,14.96079 -24.56457,17.65522 -12.03399,2.78546 -13.80973,6.26361 -7.87435,15.42347 2.7543,4.2506 3.98238,5.20445 7.40546,5.75182 7.38491,1.1809 5.91685,2.78389 -2.54955,2.78389 -7.67831,0 -8.07456,-0.12609 -10.89439,-3.46666 z"
       id="path13255" />
  </g>
</svg>
