<?xml version="1.0" encoding="UTF-8" standalone="no"?>
<!-- Created with Inkscape (http://www.inkscape.org/) -->

<svg
   version="1.1"
   id="svg240"
   width="288"
   height="288"
   viewBox="0 0 288 288"
   sodipodi:docname="hares.svg"
   inkscape:version="1.2.2 (b0a8486541, 2022-12-01)"
   xmlns:inkscape="http://www.inkscape.org/namespaces/inkscape"
   xmlns:sodipodi="http://sodipodi.sourceforge.net/DTD/sodipodi-0.dtd"
   xmlns="http://www.w3.org/2000/svg"
   xmlns:svg="http://www.w3.org/2000/svg">
  <defs
     id="defs244" />
  <sodipodi:namedview
     id="namedview242"
     pagecolor="#ffffff"
     bordercolor="#666666"
     borderopacity="1.0"
     inkscape:showpageshadow="2"
     inkscape:pageopacity="0.0"
     inkscape:pagecheckerboard="0"
     inkscape:deskcolor="#d1d1d1"
     showgrid="false"
     inkscape:zoom="2.6736111"
     inkscape:cx="143.81299"
     inkscape:cy="144"
     inkscape:window-width="1920"
     inkscape:window-height="994"
     inkscape:window-x="0"
     inkscape:window-y="25"
     inkscape:window-maximized="1"
     inkscape:current-layer="g246" />
  <g
     inkscape:groupmode="layer"
     inkscape:label="Image"
     id="g246">
    <path
       style="fill:#ffffff;stroke-width:1.06667;stroke:#000000;stroke-opacity:1"
       d="m 52.124626,276.83573 c -0.273678,-0.27367 -4.676331,-0.97241 -9.783673,-1.55274 -9.630931,-1.09435 -14.103546,-2.66779 -19.195128,-6.75277 -3.984181,-3.19651 -5.509387,-9.71693 -3.304356,-14.12647 0.881136,-1.76206 1.835423,-7.04375 2.120638,-11.73708 0.285215,-4.69334 0.928288,-10.93334 1.42905,-13.86667 0.500764,-2.93333 0.925657,-6.31878 0.944207,-7.52321 0.01855,-1.20444 1.08977,-5.28444 2.380486,-9.06667 1.290716,-3.78224 2.434221,-7.59679 2.541123,-8.47679 0.30556,-2.51534 2.931779,-7.56367 6.725024,-12.92739 1.916568,-2.71007 3.48467,-5.66536 3.48467,-6.56734 0,-0.90197 2.4,-3.64934 5.333333,-6.10527 2.933333,-2.45592 5.333333,-4.90299 5.333333,-5.43793 0,-1.82987 11.194378,-12.10419 15.196221,-13.94725 2.197922,-1.01226 6.037922,-3.22266 8.533333,-4.91201 14.723606,-9.96762 43.372973,-17.7541 62.868513,-17.08675 6.59793,0.22585 7.51555,-0.0292 12.26667,-3.41024 2.82439,-2.0099 5.76379,-4.39344 6.53197,-5.29676 2.82772,-3.32512 6.43569,-12.47238 7.16907,-18.17572 0.75433,-5.86614 3.57332,-12.758611 6.64954,-16.25826 1.40191,-1.594863 1.4563,-2.930854 0.38373,-9.425461 -1.53413,-9.28959 -4.19245,-14.668366 -10.72696,-21.704683 -11.1123,-11.96566 -29.93875,-40.238215 -29.93875,-44.960414 0,-3.608915 13.62276,-2.618396 24.84966,1.806833 6.67761,2.63207 18.88342,10.612845 23.89309,15.622508 2.01637,2.016377 3.77446,3.49814 3.90686,3.292807 0.79504,-1.233043 2.81705,-11.042813 2.81705,-13.666911 0,-3.4735 5.04498,-20.3064223 6.08603,-20.3064223 0.36293,0 2.64621,1.1640656 5.07394,2.5868124 10.29359,6.0324499 16.04003,25.5027319 16.04003,54.3474079 v 14.800888 l 5.58107,2.463718 c 11.98715,5.291636 15.27684,9.242495 22.59361,27.134507 2.51908,6.16 5.4903,12.69666 6.60273,14.5259 1.11243,1.82925 2.02259,4.14132 2.02259,5.13794 0,2.80804 -18.49562,20.64338 -23.73793,22.89049 -2.50742,1.07481 -5.20705,2.73511 -5.99918,3.68955 -2.12599,2.56169 -2.84041,14.90749 -1.15769,20.00618 1.33044,4.03128 1.22645,4.62238 -1.91278,10.87315 -1.82584,3.63557 -4.14463,9.73012 -5.15289,13.54346 -1.00825,3.81333 -2.36492,7.65333 -3.01482,8.53333 -0.6499,0.88 -2.08514,3.28 -3.18942,5.33333 -3.31733,6.16836 -7.01469,10.63552 -10.85761,13.11822 -1.99931,1.29165 -3.87492,3.07943 -4.16804,3.97283 -0.29311,0.89341 0.16049,4.9386 1.00801,8.98929 0.84752,4.05071 1.31181,7.73566 1.03177,8.18877 -0.28004,0.45312 0.46428,1.34482 1.65404,1.98157 1.18977,0.63675 2.16321,1.82848 2.16321,2.64831 0,0.81982 0.97547,1.80019 2.16771,2.17859 1.19224,0.3784 3.3013,1.73075 4.68682,3.00522 1.3855,1.27446 4.73004,3.86732 7.43229,5.76189 2.97952,2.08897 4.91318,4.26247 4.91318,5.52258 0,2.25332 -4.67367,6.4994 -7.15391,6.4994 -0.84308,0 -3.64104,1.23548 -6.21771,2.74549 -4.55195,2.66763 -4.9166,2.71036 -12.85684,1.50676 -4.49461,-0.68131 -9.84839,-2.1803 -11.89729,-3.3311 -2.0489,-1.15079 -3.95488,-1.86274 -4.23552,-1.5821 -0.28064,0.28064 -2.26416,-1.42344 -4.40783,-3.78686 -2.14366,-2.3634 -7.07155,-7.5591 -10.95087,-11.54599 -3.87932,-3.98689 -8.64068,-9.45929 -10.58082,-12.16088 -1.94014,-2.7016 -4.18211,-4.91199 -4.98215,-4.91199 -2.37529,0 -11.36709,4.97692 -13.41214,7.42356 -1.04231,1.24697 -2.3657,1.97637 -2.94088,1.62089 -0.57518,-0.35548 -1.33268,0.10133 -1.68335,1.01515 -0.35065,0.91382 -1.01288,1.42952 -1.4716,1.14602 -0.45872,-0.2835 -1.35842,0.11638 -1.99933,0.88863 -0.89009,1.07249 -0.41479,1.95897 2.01247,3.75353 2.23192,1.65013 3.17777,3.2535 3.17777,5.38688 0,3.56211 -1.31009,4.83821 -6.4,6.23396 -2.05333,0.56306 -5.3441,2.53297 -7.31281,4.37757 -1.9687,1.8446 -4.60871,3.39381 -5.86666,3.4427 -1.25796,0.0489 -3.4872,0.26016 -4.95386,0.46949 -11.818226,1.68678 -47.031079,3.25499 -48.142044,2.14402 z"
       id="path358" />
  </g>
</svg>
