<?xml version="1.0" encoding="UTF-8" standalone="no"?>
<!-- Created with Inkscape (http://www.inkscape.org/) -->

<svg
   version="1.1"
   id="svg15969"
   width="288"
   height="288"
   viewBox="0 0 288 288"
   sodipodi:docname="horses.svg"
   inkscape:version="1.2.2 (b0a8486541, 2022-12-01)"
   xmlns:inkscape="http://www.inkscape.org/namespaces/inkscape"
   xmlns:sodipodi="http://sodipodi.sourceforge.net/DTD/sodipodi-0.dtd"
   xmlns="http://www.w3.org/2000/svg"
   xmlns:svg="http://www.w3.org/2000/svg">
  <defs
     id="defs15973" />
  <sodipodi:namedview
     id="namedview15971"
     pagecolor="#ffffff"
     bordercolor="#666666"
     borderopacity="1.0"
     inkscape:showpageshadow="2"
     inkscape:pageopacity="0.0"
     inkscape:pagecheckerboard="0"
     inkscape:deskcolor="#d1d1d1"
     showgrid="false"
     inkscape:zoom="2.7743056"
     inkscape:cx="124.17522"
     inkscape:cy="144.18023"
     inkscape:window-width="1920"
     inkscape:window-height="994"
     inkscape:window-x="0"
     inkscape:window-y="25"
     inkscape:window-maximized="1"
     inkscape:current-layer="g15975" />
  <g
     inkscape:groupmode="layer"
     inkscape:label="Image"
     id="g15975">
    <path
       style="fill:#ffffff;stroke-width:1.06667;stroke:#000000;stroke-opacity:1"
       d="M 192,265.23047 186.13333,264 l 0.34103,-5.58019 c 0.23259,-3.80589 -0.19136,-6.34028 -1.33334,-7.97068 -1.23362,-1.76124 -1.6785,-5.06556 -1.69012,-12.55314 -0.009,-5.58946 -0.69691,-13.05036 -1.52941,-16.57979 -1.94177,-8.23222 -4.85482,-30.39878 -4.85482,-36.94228 0,-2.77641 -0.43854,-5.31905 -0.97454,-5.65031 -0.536,-0.33127 -4.256,0.17078 -8.26667,1.11565 -9.44209,2.22448 -20.9898,1.42148 -30.80795,-2.14232 -4.03662,-1.46522 -7.42663,-2.56643 -7.53336,-2.44715 -0.10673,0.11928 -2.09894,6.45688 -4.42714,14.08354 -3.33525,10.92557 -4.38651,16.36988 -4.95649,25.66879 l -0.72341,11.80213 4.79515,9.53121 c 2.63733,5.24216 7.04213,12.08256 9.78843,15.20088 2.8004,3.17972 4.57887,6.05749 4.04964,6.55276 -0.51901,0.48571 -3.49295,1.41557 -6.60875,2.06637 -5.96448,1.2458 -9.80158,0.29923 -9.80158,-2.41794 0,-0.76309 -1.6865,-3.55211 -3.74775,-6.19784 -2.06127,-2.64573 -5.14,-8.6045 -6.84163,-13.24172 -1.70162,-4.63721 -4.56121,-12.07652 -6.35465,-16.53179 -3.72033,-9.24203 -4.11845,-13.76945 -2.89892,-32.96618 0.81901,-12.89193 0.76139,-13.49225 -1.74056,-18.13333 -1.423183,-2.64 -3.269107,-4.91828 -4.102048,-5.06283 -0.832943,-0.14455 -3.434442,2.43644 -5.781109,5.73554 -2.346666,3.29909 -5.823548,7.19196 -7.726405,8.65081 -3.241143,2.48486 -4.984465,5.25474 -15.279261,24.27648 -6.058501,11.19432 -8.429673,21.0255 -9.19734,38.13333 l -0.658125,14.66667 H 50.620806 43.96941 l 0.51721,-9.33334 C 44.771085,242.6 45.956256,233.12 47.120333,226.66667 c 1.164076,-6.45334 2.73712,-16.77334 3.495653,-22.93334 1.289387,-10.47103 1.732669,-11.79012 6.810635,-20.26666 5.261143,-8.78233 5.482841,-9.48382 7.069097,-22.36815 3.000896,-24.3747 3.099455,-24.31758 -8.253315,-4.78375 -12.329396,21.21424 -15.284498,25.50562 -21.52398,31.25697 -6.553975,6.04125 -12.493734,8.64335 -19.78509,8.66751 C 4.8011712,196.27282 0.01638593,191.32265 0.00993599,180.8 l -0.00196146,-3.2 2.03795777,3.34218 c 3.5126567,5.76061 8.4287657,8.02582 13.3334947,6.1437 2.816801,-1.08091 2.065481,-7.00595 -1.483086,-11.69586 -3.779331,-4.99491 -4.0048505,-8.01728 -0.965203,-12.93553 l 2.264471,-3.664 -2.942932,-3.07176 C 9.6594621,153.012 9.376649,152.05341 9.8727483,147.65203 10.53888,141.74213 18.158207,125.91242 24.722782,116.8 l 4.610551,-6.4 0.591408,8 c 0.325275,4.4 1.203911,9.12064 1.952524,10.4903 2.184094,3.99603 7.986573,5.82992 15.798861,4.99329 C 51.374257,133.48756 54.4,132.8344 54.4,132.43214 c 0,-0.40227 -2.359783,-1.56953 -5.243964,-2.5939 -4.587131,-1.62921 -5.589172,-2.55523 -8,-7.39313 -2.981179,-5.98245 -3.45357,-10.71524 -1.541331,-15.44234 L 40.82941,104 l 1.193842,4.62557 c 1.519858,5.88872 3.977514,7.64131 10.713953,7.64025 6.062304,-9.5e-4 13.86041,-3.26699 24.930146,-10.4414 12.298302,-7.970646 18.305653,-8.916824 46.102609,-7.261314 12.98347,0.77326 16.95557,0.629065 24.43847,-0.887165 19.32315,-3.915371 27.88814,-10.408559 47.88124,-36.299174 6.81395,-8.823888 15.88128,-19.532869 20.14966,-23.797736 7.8568,-7.85035 8.64417,-9.401777 6.65648,-13.115821 -1.52111,-2.842212 0.41135,-2.702932 4.67286,0.33679 2.82579,2.015623 4.81675,2.412941 12.43133,2.480801 7.64592,0.06814 9.44496,-0.255583 11.48079,-2.065874 3.28443,-2.92055 4.89376,-1.130448 5.04671,5.613559 0.0655,2.885653 0.7466,6.002872 1.51369,6.927155 0.76709,0.924282 2.26853,5.00884 3.33654,9.076794 1.50904,5.747836 1.69626,8.196369 0.84007,10.986131 -0.91611,2.984957 -0.51632,5.740337 2.37264,16.352309 1.91093,7.019352 3.68493,15.024422 3.94223,17.789044 0.46564,5.003231 0.44417,5.04158 -4.62076,8.253661 -10.9059,6.91632 -15.68039,5.42472 -20.15996,-6.298206 -3.73863,-9.783868 -6.00859,-10.146689 -8.64661,-1.382041 -2.5743,8.552977 -2.24154,15.495447 1.13173,23.611307 3.41583,8.21827 4.32085,15.02752 2.84783,21.42644 -0.60407,2.62409 -1.00528,4.85245 -0.8916,4.95191 0.11369,0.0994 5.10343,0.64201 11.08832,1.20569 16.95753,1.59711 18.43006,3.18263 21.85892,23.53602 l 2.37364,14.08967 -3.2994,6.69081 c -3.9349,7.97957 -14.87884,21.02149 -17.63989,21.02149 -1.07468,0 -2.50493,-1.20926 -3.17835,-2.68724 -1.78159,-3.91016 0.60794,-15.95117 3.95483,-19.92873 3.16846,-3.76549 3.92859,-7.64696 3.50889,-17.91737 -0.2594,-6.34757 -0.65741,-7.96542 -1.92693,-7.83259 -0.88,0.0921 -6.88,2.19722 -13.33333,4.67811 -14.35801,5.51972 -18.955,6.16552 -25.95922,3.64684 -5.12549,-1.84311 -5.47363,-1.83842 -11.00023,0.14802 l -5.70722,2.05137 -1.81585,15.98745 c -0.99872,8.79311 -1.95872,25.10747 -2.13333,36.25414 l -0.31748,20.26666 4.6755,9.7936 c 6.3816,13.36733 5.7082,14.44074 -7.34217,11.70354 z"
       id="path16459" />
  </g>
</svg>
