<?xml version="1.0" encoding="UTF-8" standalone="no"?>
<!-- Created with Inkscape (http://www.inkscape.org/) -->

<svg
   version="1.1"
   id="svg20853"
   width="288"
   height="288"
   viewBox="0 0 288 288"
   sodipodi:docname="ravens.svg"
   inkscape:version="1.2.2 (b0a8486541, 2022-12-01)"
   xmlns:inkscape="http://www.inkscape.org/namespaces/inkscape"
   xmlns:sodipodi="http://sodipodi.sourceforge.net/DTD/sodipodi-0.dtd"
   xmlns="http://www.w3.org/2000/svg"
   xmlns:svg="http://www.w3.org/2000/svg">
  <defs
     id="defs20857" />
  <sodipodi:namedview
     id="namedview20855"
     pagecolor="#ffffff"
     bordercolor="#666666"
     borderopacity="1.0"
     inkscape:showpageshadow="2"
     inkscape:pageopacity="0.0"
     inkscape:pagecheckerboard="0"
     inkscape:deskcolor="#d1d1d1"
     showgrid="false"
     inkscape:zoom="2.7743056"
     inkscape:cx="124.17522"
     inkscape:cy="144.18023"
     inkscape:window-width="1920"
     inkscape:window-height="994"
     inkscape:window-x="0"
     inkscape:window-y="25"
     inkscape:window-maximized="1"
     inkscape:current-layer="g20859" />
  <g
     inkscape:groupmode="layer"
     inkscape:label="Image"
     id="g20859">
    <path
       style="fill:#ffffff;stroke-width:1.06667;stroke:#000000;stroke-opacity:1"
       d="m 152.53333,248.74981 c 0,-0.4676 1.8,-2.58467 4,-4.70459 3.96772,-3.8233 9.8257,-6.16117 15.46667,-6.1726 1.61333,-0.003 2.93333,-0.48595 2.93333,-1.07262 0,-0.58667 -0.36,-1.07052 -0.8,-1.07521 -0.44,-0.004 -3.92,-2.94691 -7.73333,-6.53824 l -6.93333,-6.52969 -0.36068,-11.58127 -0.36067,-11.58128 -6.95169,-2.14715 c -8.71262,-2.69105 -15.84482,-2.71512 -26.58042,-0.0897 -4.62727,1.13163 -13.21321,2.61932 -19.07988,3.30598 -10.204151,1.19435 -15.116664,2.7173 -24.53333,7.60564 -13.439906,6.97688 -30.238837,15.67982 -32.044535,16.60114 -3.848053,1.96341 -22.313618,8.06552 -25.981934,8.58596 -3.824482,0.54259 -3.960431,0.10804 -1.692785,-5.41087 0.715449,-1.74124 0.301868,-1.86225 -4.412316,-1.29106 -2.931419,0.35518 -5.900094,0.1515 -6.801763,-0.46667 -1.3333905,-0.91414 -0.800171,-1.89068 3.2,-5.86049 2.64,-2.61995 5.352439,-4.78536 6.027643,-4.81201 0.675205,-0.0267 4.101079,-2.20845 7.613055,-4.84845 3.511977,-2.64 6.846092,-4.8 7.409146,-4.8 0.563055,0 2.17718,-1.03483 3.586945,-2.29963 2.173537,-1.95004 2.23889,-2.1741 0.429877,-1.47383 -3.104484,1.20175 -16.309312,1.79889 -16.947436,0.76638 -0.298861,-0.48356 0.110237,-2.13906 0.909106,-3.67889 C 24.745541,195.61378 35.034014,185.6 36.848237,185.6 c 0.755692,0 1.533985,-0.38007 1.729541,-0.84462 0.58886,-1.39881 13.142183,-9.82205 14.638021,-9.82205 1.477047,0 8.915231,-4.45761 22.693602,-13.6 4.641828,-3.08 8.864313,-5.6 9.383302,-5.6 0.518989,0 2.300445,-1.133 3.95879,-2.51777 1.658346,-1.38478 6.855174,-5.08471 11.548507,-8.22209 4.69333,-3.13737 9.46384,-6.56437 10.60113,-7.61556 1.13729,-1.05118 2.63184,-1.91124 3.32122,-1.91124 0.68937,0 2.39887,-1.11117 3.79887,-2.46925 1.4,-1.35809 4.46545,-3.87809 6.81211,-5.6 2.34667,-1.72192 4.74667,-3.63668 5.33334,-4.25505 1.4363,-1.5139 17.48466,-15.60979 20.68534,-18.16872 1.4036,-1.12217 4.80218,-3.96032 7.55238,-6.306983 10.354,-8.83472 14.07603,-11.779998 16.87766,-13.355476 6.13194,-3.448246 18.40996,-13.064273 20.59006,-16.125933 3.4775,-4.883711 2.31861,-11.093278 -2.88792,-15.473936 -4.36174,-3.669873 -19.61773,-8.91702 -28.37171,-9.758166 C 160.59685,43.519261 160,43.169308 160,40.955546 c 0,-1.515018 1.08496,-3.21726 2.74304,-4.303676 3.03031,-1.985536 15.4789,-4.508334 22.67748,-4.595757 3.35819,-0.04078 6.41803,-1.130982 11.2,-3.990472 5.55949,-3.324436 7.75976,-4.003012 14.19295,-4.377202 15.0046,-0.872747 24.99567,4.715305 34.34792,19.210947 8.37961,12.988079 11.22171,22.027254 10.27111,32.666764 -0.39652,4.438046 -0.10101,13.401997 0.68176,20.682691 1.3013,12.103109 1.25326,13.321609 -0.82671,20.967179 -3.02453,11.11767 -4.16377,14.1121 -9.58137,25.18398 -2.58358,5.28 -4.68438,9.9053 -4.66845,10.27845 0.0159,0.37314 -2.01106,3.64784 -4.5044,7.2771 -2.49333,3.62926 -5.10904,7.64396 -5.81269,8.92156 -1.90112,3.4518 -15.23012,16.7411 -20.83013,20.76807 -2.68601,1.93151 -6.8502,4.28432 -9.25375,5.22847 l -4.37009,1.71662 v 8.24319 c 0,8.13706 0.0615,8.3224 4.77743,14.39557 2.6925,3.46742 6.66607,7.11154 9.10512,8.3502 4.09323,2.07874 4.51341,2.10348 7.7559,0.4565 11.66913,-5.92714 26.36155,-5.60584 26.36155,0.5765 0,1.94226 -0.15522,1.97962 -1.86667,0.44936 -3.06352,-2.73919 -8.74422,-2.83166 -11.39047,-0.1854 -2.65533,2.65533 -2.0581,3.39474 4.21496,5.21837 5.84012,1.69777 13.46978,7.16672 12.02032,8.61618 -0.41455,0.41455 -2.5365,-0.29814 -4.71546,-1.58375 -5.22003,-3.0799 -12.97068,-3.91099 -20.23076,-2.16933 l -5.84647,1.40255 3.99042,4.08656 c 2.19473,2.24761 3.509,4.08656 2.92061,4.08656 -0.5884,0 -1.52582,-0.40272 -2.08315,-0.89493 -2.23802,-1.97653 -13.15159,-3.66097 -18.25694,-2.81785 -5.17557,0.85474 -17.44386,0.97931 -32.35639,0.32856 -6.66769,-0.29097 -8.76045,0.0506 -12.56618,2.05089 -5.03427,2.64603 -5.56716,2.79438 -5.56716,1.54981 z m 45.77125,-16.88464 c 0.63378,-0.55783 -3.35017,-4.79698 -5.25448,-5.59107 -0.88911,-0.37075 -3.88911,-3.12388 -6.66667,-6.11805 -4.48136,-4.83087 -5.0501,-5.98932 -5.0501,-10.28658 v -4.84263 l -4.26666,1.08299 -4.26667,1.083 v 6.03834 c 0,5.76531 0.27041,6.3641 5.9807,13.24365 l 5.98072,7.20531 6.55262,-0.71476 c 3.60394,-0.39314 6.74968,-0.88822 6.99054,-1.1002 z"
       id="path20980" />
  </g>
</svg>
