<?xml version="1.0" encoding="UTF-8" standalone="no"?>
<!-- Created with Inkscape (http://www.inkscape.org/) -->

<svg
   version="1.1"
   id="svg366"
   width="288"
   height="288"
   viewBox="0 0 288 288"
   sodipodi:docname="swifts.svg"
   inkscape:version="1.2.2 (b0a8486541, 2022-12-01)"
   xmlns:inkscape="http://www.inkscape.org/namespaces/inkscape"
   xmlns:sodipodi="http://sodipodi.sourceforge.net/DTD/sodipodi-0.dtd"
   xmlns="http://www.w3.org/2000/svg"
   xmlns:svg="http://www.w3.org/2000/svg">
  <sodipodi:namedview
     id="namedview21406"
     pagecolor="#ffffff"
     bordercolor="#666666"
     borderopacity="1.0"
     inkscape:showpageshadow="2"
     inkscape:pageopacity="0.0"
     inkscape:pagecheckerboard="0"
     inkscape:deskcolor="#d1d1d1"
     showgrid="false"
     inkscape:zoom="2.7743056"
     inkscape:cx="124.17522"
     inkscape:cy="144.18023"
     inkscape:window-width="1920"
     inkscape:window-height="994"
     inkscape:window-x="0"
     inkscape:window-y="25"
     inkscape:window-maximized="1"
     inkscape:current-layer="g372" />
  <defs
     id="defs370" />
  <g
     id="g372">
    <path
       style="fill:#ffffff;stroke-width:1.06667;stroke:#000000;stroke-opacity:1"
       d="m 135.46667,280.70062 c 0,-0.49466 2.3471,-4.24154 5.21577,-8.32639 7.35036,-10.46652 10.42394,-17.60022 20.38266,-47.30756 4.81833,-14.37334 9.18982,-26.58934 9.71442,-27.14667 0.5246,-0.55733 0.95381,-1.92327 0.95381,-3.03542 0,-1.11215 0.78502,-3.35101 1.74447,-4.97524 1.65973,-2.80969 1.61346,-3.23931 -0.95246,-8.84401 -1.75804,-3.84009 -6.08425,-9.44656 -12.42708,-16.10465 -7.85522,-8.24566 -10.64992,-12.10354 -14.50334,-20.02081 -2.62523,-5.39385 -4.985,-10.01884 -5.2439,-10.27774 -0.2589,-0.2589 -5.1838,0.5546 -10.9442,1.80776 -9.51831,2.0707 -15.48337,4.75107 -65.40682,29.39027 -30.213333,14.91147 -56.1333333,27.3951 -57.6,27.74141 -6.60011638,1.55839 5.786533,-6.53967 24,-15.69055 11.579871,-5.81801 23.304661,-12.65004 29.542279,-17.21428 5.688253,-4.16225 10.18645,-7.72357 9.995991,-7.91402 -0.720344,-0.72035 -21.987801,6.1827 -36.33827,11.79476 -8.213333,3.21201 -16.337156,6.16626 -18.052941,6.56501 -2.724463,0.63316 -2.947037,0.51706 -1.757191,-0.91662 1.897488,-2.28633 10.351803,-6.13739 41.143465,-18.74143 40.302608,-16.49718 56.387567,-25.32944 70.530047,-38.72811 6.99063,-6.62296 7.26319,-7.07042 7.03921,-11.55636 -0.12815,-2.566652 -0.30318,-10.666637 -0.38894,-17.99997 -0.14731,-12.595618 0.0557,-13.991089 3.66954,-25.221491 5.03201,-15.637663 4.76386,-16.671526 -5.71774,-22.044884 C 113.16651,27.270436 86.175937,20.468549 73.025754,21.559065 69.821589,21.824779 67.2,21.701551 67.2,21.285226 c 0,-1.318647 18.266957,-7.398576 28.8,-9.585722 21.41439,-4.4466149 67.48012,-3.6368831 77.86667,1.36872 5.52574,2.663028 13.86666,9.970638 13.86666,12.148791 0,0.813256 -2.58034,7.352123 -5.73409,14.530816 -7.43604,16.926211 -7.89685,19.585258 -4.62675,26.698434 3.51691,7.650033 7.64416,12.211274 12.29608,13.589024 2.16228,0.640403 10.65143,1.573549 18.86476,2.073659 8.21334,0.500109 16.20653,1.400511 17.76266,2.000893 1.55614,0.600382 4.63661,3.044918 6.84549,5.432303 3.21031,3.469715 5.53202,4.776042 11.57068,6.5103 12.18786,3.500265 12.49426,3.975186 2.22117,3.442847 -9.42537,-0.488417 -9.88133,-0.396621 -25.06666,5.046639 -17.93097,6.42745 -26.39236,10.86435 -27.80511,14.58019 -1.70542,4.48558 -1.1649,13.96569 1.04075,18.25371 2.427,4.71835 5.39091,7.53458 16.32634,15.51298 4.52576,3.30195 8.99998,7.18074 9.9427,8.61952 1.93693,2.95611 1.64599,6.57741 -1.80698,22.49167 -2.16878,9.99564 -6.43274,18.16524 -16.42341,31.46667 -2.42354,3.22666 -7.79692,10.66666 -11.94083,16.53333 -15.35627,21.74031 -31.82729,37.7145 -47.23683,45.81199 -7.65742,4.02386 -8.49663,4.30917 -8.49663,2.88863 z"
       id="path484" />
  </g>
</svg>
