<?xml version="1.0" encoding="UTF-8" standalone="no"?>
<!-- Created with Inkscape (http://www.inkscape.org/) -->

<svg
   version="1.1"
   id="svg226"
   width="288"
   height="288"
   viewBox="0 0 288 288"
   sodipodi:docname="wolfes.svg"
   inkscape:version="1.2.2 (b0a8486541, 2022-12-01)"
   xmlns:inkscape="http://www.inkscape.org/namespaces/inkscape"
   xmlns:sodipodi="http://sodipodi.sourceforge.net/DTD/sodipodi-0.dtd"
   xmlns="http://www.w3.org/2000/svg"
   xmlns:svg="http://www.w3.org/2000/svg">
  <defs
     id="defs230" />
  <sodipodi:namedview
     id="namedview228"
     pagecolor="#ffffff"
     bordercolor="#666666"
     borderopacity="1.0"
     inkscape:showpageshadow="2"
     inkscape:pageopacity="0.0"
     inkscape:pagecheckerboard="0"
     inkscape:deskcolor="#d1d1d1"
     showgrid="false"
     inkscape:zoom="2.6736111"
     inkscape:cx="143.81299"
     inkscape:cy="144"
     inkscape:window-width="1920"
     inkscape:window-height="994"
     inkscape:window-x="0"
     inkscape:window-y="25"
     inkscape:window-maximized="1"
     inkscape:current-layer="g232" />
  <g
     inkscape:groupmode="layer"
     inkscape:label="Image"
     id="g232">
    <path
       style="fill:#ffffff;stroke-width:1.06667;stroke:#000000;stroke-opacity:1"
       d="m 36.157826,263.35782 c -2.40653,-2.40652 -5.642128,-7.08652 -7.19022,-10.4 -2.523692,-5.40161 -2.853615,-7.52969 -3.190993,-20.58268 l -0.376281,-14.55821 6.45779,-6.55883 c 8.948252,-9.08827 13.176811,-17.92816 13.709696,-28.66041 0.42761,-8.61207 -0.83906,-12.91405 -2.884817,-9.79769 -0.577684,0.88 -1.057684,3.41913 -1.066667,5.6425 -0.03189,7.89301 -6.879487,16.8341 -16.016334,20.91293 l -4.8,2.14281 -0.298879,-24.74912 C 20.22297,153.71633 20.360857,151.55616 22.489422,145.6 30.893847,122.08269 44.85352,106.64041 63.865022,99.830053 69.086421,97.95963 73.541479,97.595979 98.133333,97.032848 121.86767,96.489355 127.16964,96.076734 131.2,94.45947 c 3.01822,-1.211122 8.75952,-2.117156 15.46667,-2.440793 10.28271,-0.496166 10.97107,-0.68832 19.12321,-5.338209 14.79011,-8.436105 21.7257,-14.147135 17.18057,-14.147135 -2.67903,0 -8.65121,-6.09163 -9.87205,-10.069494 -1.09778,-3.576886 -0.23328,-5.213998 1.37725,-2.608112 0.93559,1.513826 8.25593,0.671362 17.72812,-2.040245 5.99565,-1.716381 8.5096,-3.254541 15.71885,-9.617635 6.02025,-5.313628 9.93921,-7.91718 13.12957,-8.722589 7.14007,-1.802516 8.27117,-2.514904 17.64155,-11.110954 8.87349,-8.14022 10.50091,-8.960499 14.03009,-7.071735 4.91547,2.630679 5.56519,14.651638 1.19248,22.062836 -2.64222,4.478234 -1.35312,5.365034 5.22433,3.593912 5.93333,-1.597681 8.59269,-0.653108 8.59269,3.052025 0,4.057451 -1.61628,5.852542 -9.5886,10.649357 -9.611,5.782779 -11.74473,9.962258 -11.74473,23.005176 0,14.603268 -5.83687,32.717545 -14.69252,45.597085 -2.34789,3.41475 -3.36672,6.41547 -3.92055,11.54704 -1.73895,16.11259 -7.86906,35.38515 -16.58206,52.13263 l -4.27154,8.21043 v 17.75903 c 0,9.76747 0.46136,18.97249 1.02524,20.45561 0.56387,1.4831 2.90636,3.88407 5.20553,5.33546 2.5296,1.59687 4.65195,3.99193 5.37476,6.06538 2.10006,6.02425 1.83943,6.30813 -5.79183,6.30813 -7.67548,0 -12.47983,-1.84444 -14.46466,-5.55314 -2.21723,-4.14293 -6.1851,-23.38951 -7.98118,-38.71353 -0.96265,-8.21333 -2.10537,-15.89333 -2.53937,-17.06667 -0.71711,-1.93874 -0.99919,-1.79279 -3.09237,1.6 -3.68267,5.96913 -5.46288,13.43136 -6.74338,28.26667 -1.15302,13.35843 -1.11213,14.03201 1.11565,18.37802 1.2719,2.48124 3.7187,5.2385 5.43733,6.12724 3.27398,1.69304 6.45428,5.46543 6.45428,7.65589 0,2.90269 -3.39122,4.63885 -9.06101,4.63885 -4.59596,0 -6.35299,-0.54219 -9.01453,-2.78172 -6.34274,-5.33706 -6.07863,-2.97776 -8.1457,-72.76737 -0.52899,-17.85953 -0.82763,-20.53249 -2.23378,-19.99289 -3.49368,1.34065 -22.30249,2.85995 -27.44501,2.2169 -2.98832,-0.37367 -9.2733,-1.64683 -13.96663,-2.82923 l -8.53334,-2.14983 -4.61671,5.08071 c -5.22475,5.74983 -15.632734,26.21406 -20.016621,39.35676 -4.080802,12.23407 -4.516814,21.0177 -1.507823,30.37567 2.363188,7.34953 2.477659,7.491 6.061221,7.491 5.553114,0 9.452563,2.54418 11.414393,7.44727 0.95271,2.38108 1.73221,4.79952 1.73221,5.37432 0,0.61391 -4.48161,1.04508 -10.862761,1.04508 H 83.874479 L 78.631534,254.8272 C 71.897425,247.84068 67.51281,238.42986 65.929006,227.56338 l -1.245457,-8.54507 3.396275,-4.22621 c 5.088943,-6.33251 7.653509,-14.74401 7.653509,-25.1027 v -8.7639 l -3.784415,6.33725 C 69.867491,190.74823 64.451697,197.2 59.913821,201.6 48.478423,212.68795 41.649542,226.34613 41.61266,238.20346 c -0.01694,5.44579 1.40736,7.78928 6.229099,10.24915 5.712133,2.91411 11.891574,10.0526 11.891574,13.73713 0,4.65862 -1.736871,5.54359 -10.88,5.54359 -8.318937,0 -8.320559,-5.5e-4 -12.695507,-4.37551 z"
       id="path344" />
  </g>
</svg>
