<?xml version="1.0" encoding="UTF-8" standalone="no"?>
<!-- Created with Inkscape (http://www.inkscape.org/) -->

<svg
   version="1.1"
   id="svg1123"
   width="288"
   height="288"
   viewBox="0 0 288 288"
   xmlns="http://www.w3.org/2000/svg"
   xmlns:svg="http://www.w3.org/2000/svg">
  <defs
     id="defs1127" />
  <g
     id="g1129">
    <path
       style="display:inline;fill:#f9f9f9;stroke:#000000;stroke-width:1.06667;stroke-opacity:1"
       d="m 69.552089,279.74528 -5.647911,-0.39342 0.156062,-13.00927 c 0.137916,-11.49655 0.556537,-14.24957 3.600124,-23.67592 L 71.104425,232 70.320269,215.46667 c -0.462936,-9.76065 -1.659677,-20.46586 -2.921459,-26.13334 -4.499128,-20.20846 -4.106062,-25.63075 2.409814,-33.24308 4.943859,-5.7758 17.212095,-12.94973 24.426041,-14.2833 3.166429,-0.58534 13.378985,-1.20668 22.694575,-1.38076 23.48202,-0.43879 23.3637,-0.36485 27.00985,-16.88027 0.6056,-2.74307 1.63739,-6.16445 2.29286,-7.60306 1.64278,-3.60552 -1.27303,-9.56636 -6.06148,-12.39161 -2.11266,-1.2465 -5.86214,-5.560305 -8.9673,-10.316932 -6.59089,-10.096232 -7.17483,-12.624705 -1.75574,-7.602465 2.37567,2.201695 13.37508,6.567858 14.27611,5.666832 0.20471,-0.204705 -4.80935,-4.705949 -11.14235,-10.002764 -18.18354,-15.208433 -21.64786,-19.765637 -21.64786,-28.477098 0,-2.080666 -1.68,-7.94936 -3.73333,-13.04154 -2.05333,-5.092181 -3.73333,-10.785508 -3.73333,-12.651838 0,-3.493944 4.98794,-16.093058 5.97888,-15.102126 0.30533,0.305342 0.0109,3.556516 -0.65429,7.22483 -1.38262,7.624738 -0.71351,12.19058 1.6534,11.282311 0.94181,-0.361406 1.55534,0.04202 1.55534,1.022687 0,3.119091 3.22535,-0.11703 9.1918,-9.222462 l 5.89561,-8.997352 -0.5519,5.530603 c -0.30354,3.041831 -0.10069,5.681831 0.45084,5.866667 0.55151,0.184835 -0.84811,3.062567 -3.11024,6.394961 -6.43414,9.478233 -6.60085,16.329224 -0.67664,27.805953 4.21279,8.161247 4.7897,8.37563 4.88474,1.81515 0.0927,-6.395894 0.36752,-5.955481 3.66503,5.872266 1.27977,4.59036 2.93574,7.517031 5.97034,10.551633 2.30966,2.309653 4.37578,4.011133 4.59137,3.781068 0.21561,-0.230065 -0.007,-2.818301 -0.49588,-5.751634 -0.48835,-2.933333 -0.86625,-7.013333 -0.8398,-9.066667 0.04,-3.101109 0.52594,-2.276519 2.86975,4.869277 1.55191,4.731435 4.38165,10.705996 6.28831,13.276802 1.90667,2.570807 3.46667,5.022408 3.46667,5.448001 0,0.425595 1.64876,1.317948 3.6639,1.983007 5.04912,1.666359 11.94209,-0.185936 12.90383,-3.467545 0.38302,-1.306914 1.5654,-4.296208 2.62751,-6.642875 1.06211,-2.346667 2.25055,-6.569732 2.64098,-9.384591 0.80509,-5.804446 3.65825,-13.344955 3.71393,-9.815409 0.0185,1.173333 -0.43202,6.184011 -1.00118,11.134838 -0.56917,4.950828 -0.83267,9.203679 -0.58558,9.45078 0.24711,0.247102 3.11933,-2.075941 6.38271,-5.162317 7.04515,-6.663007 9.10373,-12.154571 9.153,-24.416902 0.0416,-10.365424 1.8766,-7.926879 2.95088,3.92154 L 196.8,65.6 l 4.53333,-9.106492 c 4.03743,-8.110324 4.53334,-9.925247 4.53334,-16.591167 0,-6.417475 -0.43484,-8.160836 -3.04971,-12.226841 -1.67733,-2.608192 -4.28266,-5.873264 -5.78961,-7.255717 -1.50696,-1.382452 -2.49762,-3.144945 -2.20149,-3.916649 0.29612,-0.771706 0.004,-2.400608 -0.64792,-3.619784 -1.29969,-2.428497 0.31429,-3.1909272 1.76906,-0.835685 1.54142,2.495524 13.38655,11.507714 14.59982,11.10805 0.65258,-0.214966 1.79104,-1.552944 2.52989,-2.973282 1.24373,-2.390848 1.14339,-4.540126 -0.46913,-10.0491 -0.61506,-2.1012917 -0.59035,-2.1028952 1.64468,-0.106764 3.24518,2.898321 4.61977,8.71615 3.256,13.780806 -0.61333,2.277715 -0.86429,4.392147 -0.5577,4.698737 2.31631,2.316313 7.76115,-6.450003 6.49125,-10.451076 C 223.08308,16.924766 223.26957,16 223.85623,16 c 1.78346,0 2.50083,4.095532 1.7164,9.799036 -0.59566,4.330927 -1.47199,6.047658 -4.399,8.617602 -5.0112,4.399897 -5.99815,6.622572 -6.35004,14.300671 -0.16694,3.642717 -1.01413,7.971525 -1.88264,9.619573 -1.69045,3.207748 -8.39154,9.868765 -23.34095,23.201374 -5.13333,4.578158 -9.33333,8.738196 -9.33333,9.24453 0,1.405868 11.94398,-3.290827 14.66246,-5.765671 4.26918,-3.886585 3.66494,-1.183377 -1.02626,4.591161 -2.51325,3.093623 -5.46457,7.11329 -6.55849,8.932594 -1.09393,1.81931 -3.13393,4.36895 -4.53333,5.66588 -3.67189,3.40299 -3.21723,7.16072 2.18037,18.02051 6.40717,12.89101 8.05465,19.98826 8.05163,34.68596 -0.001,6.68439 0.4479,15.16034 0.99838,18.83543 0.55047,3.67508 0.604,7.99508 0.11894,9.6 -1.49658,4.95172 -4.34379,11.07215 -6.52009,14.01576 -1.36545,1.84686 -2.42091,5.82048 -3.07927,11.59287 -0.55093,4.83055 -1.54143,11.75923 -2.20108,15.39707 -0.65967,3.63783 -0.91593,9.75632 -0.56948,13.59662 0.34646,3.84029 0.72378,11.06236 0.83848,16.04903 0.11471,4.98667 0.78301,10.02667 1.48511,11.2 0.7021,1.17333 1.60181,3.69333 1.99934,5.6 0.81029,3.88634 0.47321,4.01547 -6.35148,2.43318 -5.58529,-1.29493 -7.25202,-3.67745 -6.34291,-9.06687 0.42492,-2.51905 -0.30965,-12.16844 -1.81375,-23.82572 l -2.52791,-19.59204 -4.70138,-2.14173 c -4.81915,-2.19537 -9.65118,-2.06817 -12.54095,0.33012 -1.93058,1.60225 -1.84117,12.40657 0.17339,20.95118 1.16253,4.93081 1.33318,8.43415 0.64947,13.33333 -1.15018,8.2415 -0.50293,12.90546 2.12043,15.27957 3.91554,3.54352 2.59341,4.82813 -4.61414,4.48321 l -6.63584,-0.31756 0.32731,-9.36107 c 0.18002,-5.14859 -0.16981,-11.62859 -0.77739,-14.4 -3.46808,-15.81919 -5.69704,-24.28399 -6.71859,-25.51489 C 135.61399,224.49227 132.58795,224 127.8107,224 h -7.39476 l -2.48596,5.6 c -1.36727,3.08 -4.82086,8.72 -7.67463,12.53333 -5.15553,6.88904 -5.18868,6.98571 -5.18868,15.13048 0,7.37701 0.28044,8.49758 2.80299,11.2 3.01066,3.22531 5.19701,6.94184 5.19701,8.83429 0,0.77117 -2.0965,1.00689 -6.13334,0.6896 -5.16198,-0.40574 -6.09931,-0.79136 -5.9185,-2.43489 0.11815,-1.07405 -2.180529,-6.90621 -5.108181,-12.96037 -7.450912,-15.40791 -7.448591,-15.36914 -1.566676,-26.15966 4.628662,-8.49139 4.943425,-9.5644 4.645871,-15.83731 -0.307629,-6.48535 -0.415662,-6.71668 -2.985844,-6.39371 -1.466667,0.1843 -3.36558,1.3251 -4.219806,2.5351 -4.428549,6.27299 -20.313527,46.31486 -20.313527,51.20508 0,1.17452 1.44,3.48064 3.2,5.12473 3.194514,2.98411 4.390819,7.64289 1.866666,7.26935 C 75.8,280.2275 72.658439,279.96166 69.552089,279.74528 Z"
       id="path1654" />
  </g>
</svg>
