<?xml version="1.0" encoding="UTF-8" standalone="no"?>
<!-- Created with Inkscape (http://www.inkscape.org/) -->

<svg
   version="1.1"
   id="svg269"
   width="346.66666"
   height="346.66666"
   viewBox="0 0 346.66666 346.66666"
   sodipodi:docname="show.svg"
   inkscape:version="1.2.2 (b0a8486541, 2022-12-01)"
   xmlns:inkscape="http://www.inkscape.org/namespaces/inkscape"
   xmlns:sodipodi="http://sodipodi.sourceforge.net/DTD/sodipodi-0.dtd"
   xmlns="http://www.w3.org/2000/svg"
   xmlns:svg="http://www.w3.org/2000/svg">
  <defs
     id="defs273" />
  <sodipodi:namedview
     id="namedview271"
     pagecolor="#ffffff"
     bordercolor="#666666"
     borderopacity="1.0"
     inkscape:showpageshadow="2"
     inkscape:pageopacity="0.0"
     inkscape:pagecheckerboard="0"
     inkscape:deskcolor="#d1d1d1"
     showgrid="false"
     inkscape:zoom="2.3048078"
     inkscape:cx="110.20442"
     inkscape:cy="173.98414"
     inkscape:window-width="1920"
     inkscape:window-height="994"
     inkscape:window-x="0"
     inkscape:window-y="25"
     inkscape:window-maximized="1"
     inkscape:current-layer="g275" />
  <g
     inkscape:groupmode="layer"
     inkscape:label="Image"
     id="g275">
    <path
       style="fill:#ffffff;stroke-width:1.33333;fill-opacity:1;stroke:#000000;stroke-opacity:1"
       d="m 146.66784,319.3345 -24.63845,-24.66548 6.98006,-6.98007 6.98007,-6.98006 12.6719,12.61922 12.67191,12.61922 V 286.97366 267.99999 H 148 134.66666 V 258 248 H 148 161.33333 v -24.32471 -24.32472 l -38.66304,38.6458 -38.663038,38.6458 -6.99138,-6.99138 -6.99138,-6.99138 38.645798,-38.66304 38.6458,-38.66304 H 122.99138 98.666665 V 198.66666 212 h -10 -10 V 198.66666 185.33333 H 59.692999 40.719334 l 12.619218,12.67191 12.619217,12.6719 -6.984598,6.9846 -6.9846,6.9846 L 26.99873,199.6565 2.0088889,174.66666 26.99873,149.67682 l 24.989841,-24.98984 6.9846,6.9846 6.984598,6.9846 L 53.338552,151.32809 40.719334,164 h 18.973665 18.973666 v -13.33334 -13.33333 h 10 10 V 150.66666 164 h 24.324715 24.32471 l -38.6458,-38.66304 -38.645798,-38.663042 6.99138,-6.99138 6.99138,-6.991379 38.663038,38.645801 38.66304,38.6458 V 125.65804 101.33333 H 148 134.66666 v -9.999998 -10 H 148 161.33333 V 62.359665 43.386 l -12.67191,12.619219 -12.6719,12.619217 -6.98461,-6.984599 -6.9846,-6.984599 L 147.01016,29.665397 172,4.6755555 l 24.98984,24.9898415 24.98984,24.989841 -6.9846,6.984599 -6.9846,6.984599 L 195.33857,56.005219 182.66666,43.386 V 62.359665 81.333332 H 196 209.33333 v 10 9.999998 H 196 182.66666 v 24.32471 24.32472 l 38.66304,-38.6458 38.66304,-38.645801 6.99139,6.991379 6.99137,6.99138 L 235.3297,125.33696 196.6839,164 h 24.32472 24.32471 v -13.33334 -13.33333 h 10 10 V 150.66666 164 h 18.97366 18.97367 l -12.61921,-12.67191 -12.61923,-12.67191 6.9846,-6.9846 6.9846,-6.9846 24.98984,24.98984 24.98984,24.98984 -24.98984,24.98984 -24.98984,24.98984 -6.9846,-6.9846 -6.9846,-6.9846 12.61923,-12.6719 12.61921,-12.67191 H 284.30699 265.33333 V 198.66666 212 h -10 -10 V 198.66666 185.33333 H 221.00862 196.6839 l 38.6458,38.66304 38.6458,38.66304 -6.99137,6.99138 -6.99139,6.99138 -38.66304,-38.6458 -38.66304,-38.6458 V 223.67529 248 H 196 209.33333 v 10 9.99999 H 196 182.66666 v 18.97367 18.97367 l 12.67191,-12.61922 12.67191,-12.61922 6.98006,6.98006 6.98007,6.98007 -24.63845,24.66548 C 183.781,332.90053 172.38153,343.99999 172,343.99999 c -0.38154,0 -11.781,-11.09946 -25.33216,-24.66549 z"
       id="path279" />
  </g>
</svg>
